<?xml version="1.0" encoding="UTF-8"?>
<svg width="15px" height="15px" viewBox="0 0 15 15" version="1.1" xmlns="http://www.w3.org/2000/svg" xmlns:xlink="http://www.w3.org/1999/xlink">
    <!-- Generator: Sketch 61.1 (89650) - https://sketch.com -->
    <title>入库</title>
    <desc>Created with Sketch.</desc>
    <g id="页面-1" stroke="none" stroke-width="1" fill="none" fill-rule="evenodd">
        <g id="首页" transform="translate(-140.000000, -332.000000)" fill-rule="nonzero">
            <g id="入库" transform="translate(140.000000, 332.000000)">
                <rect id="矩形" fill="#000000" opacity="0" x="0" y="0" width="16" height="16"></rect>
                <path d="M5.85866667,9.06488889 C5.67210479,8.86246212 5.39338655,8.77213989 5.12355556,8.82666667 C4.89955556,8.88533334 4.79555556,9.06488889 4.736,9.26666667 C4.67644444,9.46933334 4.79555556,9.832 5.00711111,10.0133333 L6.176,11.1137778 L1.62933333,11.1137778 C1.36533333,11.1137778 1.12,11.2062222 0.988444438,11.4346667 C0.85583437,11.6639868 0.85583437,11.9466799 0.988444438,12.176 C1.12,12.4044444 1.36533333,12.4782222 1.62933333,12.4782222 L6.176,12.4782222 L5.00711111,13.6124444 C4.81955555,13.7991111 4.66577778,14.1333333 4.736,14.3591111 C4.80711111,14.5857778 4.94577778,14.688 5.14222222,14.7422222 C5.33866666,14.7955555 5.67111111,14.7395555 5.85866667,14.5528889 L8.08088889,12.3306667 C8.24587922,12.1652416 8.3229973,11.9315805 8.28888889,11.7004444 C8.26335578,11.5221812 8.17358106,11.3593855 8.03644444,11.2426667 L5.85866667,9.06488889 Z" id="路径" fill="#000000"></path>
                <path d="M11.2284444,14.7617778 C10.9639442,14.7615594 10.7196469,14.6202667 10.5875556,14.3911111 C10.4542222,14.1626667 10.4542222,13.9991111 10.5875556,13.7697778 C10.7198727,13.5409643 10.9641275,13.400035 11.2284444,13.4 L13.5733333,13.4 L13.5262222,5.66133333 L8,2.38133333 L2.23644444,5.66222222 L2.23644444,7.47555556 C2.23644444,7.88444445 1.96977777,8.18222223 1.56088889,8.18222222 C1.15022222,8.18133333 0.888888891,7.88444444 0.888888891,7.47555556 L0.888888891,5.25333333 C0.888888891,4.99822222 1.01955556,4.76 1.23644444,4.624 L7.60622222,0.979555563 C7.84654534,0.829111741 8.15167688,0.829111741 8.392,0.979555563 L14.536,4.624 C14.7528889,4.76 14.8853333,4.99733333 14.8844444,5.25422222 L14.9315556,14.0213333 C14.9315556,14.4302222 14.6,14.7617778 14.1902222,14.7617778 L11.2275556,14.7617778 L11.2284444,14.7617778 Z" id="路径" fill="#F4BD3A"></path>
            </g>
        </g>
    </g>
</svg>