<?xml version="1.0" encoding="UTF-8"?>
<svg width="15px" height="15px" viewBox="0 0 15 15" version="1.1" xmlns="http://www.w3.org/2000/svg" xmlns:xlink="http://www.w3.org/1999/xlink">
    <!-- Generator: Sketch 61.1 (89650) - https://sketch.com -->
    <title>出库</title>
    <desc>Created with Sketch.</desc>
    <g id="页面-1" stroke="none" stroke-width="1" fill="none" fill-rule="evenodd">
        <g id="首页" transform="translate(-319.000000, -332.000000)" fill-rule="nonzero">
            <g id="出库" transform="translate(319.000000, 332.000000)">
                <rect id="矩形" fill="#000000" opacity="0" x="0" y="0" width="16" height="16"></rect>
                <path d="M1.14844444,11.2426667 L3.32622222,9.06488889 C3.51296535,8.8621589 3.79210538,8.77180923 4.06222222,8.82666667 C4.28622222,8.88533334 4.38933333,9.06488889 4.44888889,9.26666667 C4.50844445,9.46933334 4.38933333,9.832 4.17777778,10.0133333 L3.00977778,11.1137778 L7.55555556,11.1137778 C7.82044445,11.1137778 8.06488889,11.2062222 8.19733333,11.4346667 C8.3299434,11.6639868 8.3299434,11.9466799 8.19733333,12.176 C8.06488889,12.4044444 7.82044444,12.4782222 7.55555556,12.4782222 L3.00977778,12.4782222 L4.17777778,13.6124444 C4.36622222,13.7991111 4.52,14.1333333 4.44888889,14.3591111 C4.37777778,14.5857778 4.23911111,14.688 4.04266667,14.7422222 C3.84711111,14.7955555 3.51466667,14.7395555 3.32622222,14.5528889 L1.104,12.3306667 C0.939332363,12.1650748 0.862551119,11.9314358 0.896888891,11.7004444 C0.922189436,11.5223075 1.01163821,11.3595297 1.14844444,11.2426667 Z" id="路径" fill="#000000"></path>
                <path d="M11.2284444,14.7617778 C10.9639442,14.7615594 10.7196469,14.6202667 10.5875556,14.3911111 C10.4542222,14.1626667 10.4542222,13.9991111 10.5875556,13.7697778 C10.7198727,13.5409643 10.9641275,13.400035 11.2284444,13.4 L13.5733333,13.4 L13.5262222,5.66133333 L8,2.38133333 L2.23644444,5.66222222 L2.23644444,7.47555556 C2.23644444,7.88444445 1.96977777,8.18222223 1.56088889,8.18222222 C1.15022222,8.18133333 0.888888891,7.88444444 0.888888891,7.47555556 L0.888888891,5.25333333 C0.888888891,4.99822222 1.01955556,4.76 1.23644444,4.624 L7.60622222,0.979555563 C7.84654534,0.829111741 8.15167688,0.829111741 8.392,0.979555563 L14.536,4.624 C14.7528889,4.76 14.8853333,4.99733333 14.8844444,5.25422222 L14.9315556,14.0213333 C14.9315556,14.4302222 14.6,14.7617778 14.1902222,14.7617778 L11.2275556,14.7617778 L11.2284444,14.7617778 Z" id="路径" fill="#259D8F"></path>
            </g>
        </g>
    </g>
</svg>